<svg width="42" height="30" viewBox="0 0 42 30" fill="none" xmlns="http://www.w3.org/2000/svg">
<path fill-rule="evenodd" clip-rule="evenodd" d="M4.16634 0.5H37.833C39.674 0.5 41.1663 2.14162 41.1663 4.16667V26.1667C41.1663 28.1917 39.674 29.8333 37.833 29.8333H4.16634C2.32539 29.8333 0.833008 28.1917 0.833008 26.1667V4.16667C0.833008 2.14162 2.32539 0.5 4.16634 0.5ZM4.4996 4.16667V26.1667H37.4996V4.16667H4.4996ZM8.16641 18.8333V22.5H11.8331V18.8333H8.16641ZM13.6664 22.5V18.8333H19.1664V22.5H13.6664ZM30.1664 18.8333V22.5H33.8331V18.8333H30.1664ZM24.6664 22.5V18.8333H28.3331V22.5H24.6664ZM13.6664 9.66667H8.16641V15.1667H13.6664V9.66667Z"/>
</svg>
