<svg width="24" height="24" viewBox="0 0 24 24" fill="none" xmlns="http://www.w3.org/2000/svg">
<path fill-rule="evenodd" clip-rule="evenodd" d="M19 11.9994C19 8.42024 18.146 5.12973 16.7143 2.63942L14.9171 3.53529C16.1877 5.69424 16.994 8.67482 16.994 11.9994C16.994 15.324 16.1877 18.3046 14.9171 20.4635L16.7143 21.3594C18.146 18.8691 19 15.5786 19 11.9994ZM14.988 11.9994C14.988 9.16846 14.253 6.54955 13.011 4.48546L11.2114 5.38252C12.3071 7.13755 12.982 9.44731 12.982 11.9994C12.982 14.5515 12.3071 16.8613 11.2114 18.6163L13.011 19.5134C14.253 17.4493 14.988 14.8304 14.988 11.9994ZM9.36873 6.30103C10.3833 7.92067 10.976 9.88645 10.976 11.9994C10.976 14.1124 10.3833 16.0782 9.36873 17.6978L7.56526 16.7988C8.44596 15.465 8.97006 13.8054 8.97006 11.9994C8.97006 10.1935 8.44596 8.53383 7.56526 7.20002L9.36873 6.30103ZM6.96407 11.9994C6.96407 10.5692 6.54372 9.23194 5.8086 8.07567L4 8.97722C4.60973 9.86792 4.95808 10.9022 4.95808 11.9994C4.95808 13.0967 4.60973 14.1309 4 15.0216L5.8086 15.9232C6.54372 14.7669 6.96407 13.4297 6.96407 11.9994Z"/>
</svg>
