<?xml version="1.0" encoding="UTF-8"?><!DOCTYPE svg PUBLIC "-//W3C//DTD SVG 1.1//EN" "http://www.w3.org/Graphics/SVG/1.1/DTD/svg11.dtd"><svg xmlns="http://www.w3.org/2000/svg" xmlns:xlink="http://www.w3.org/1999/xlink"><symbol id="icon-card" viewBox="0 0 42 30">
<path fill-rule="evenodd" clip-rule="evenodd" d="M4.16634 0.5H37.833C39.674 0.5 41.1663 2.14162 41.1663 4.16667V26.1667C41.1663 28.1917 39.674 29.8333 37.833 29.8333H4.16634C2.32539 29.8333 0.833008 28.1917 0.833008 26.1667V4.16667C0.833008 2.14162 2.32539 0.5 4.16634 0.5ZM4.4996 4.16667V26.1667H37.4996V4.16667H4.4996ZM8.16641 18.8333V22.5H11.8331V18.8333H8.16641ZM13.6664 22.5V18.8333H19.1664V22.5H13.6664ZM30.1664 18.8333V22.5H33.8331V18.8333H30.1664ZM24.6664 22.5V18.8333H28.3331V22.5H24.6664ZM13.6664 9.66667H8.16641V15.1667H13.6664V9.66667Z"/>
</symbol><symbol id="icon-paypass" viewBox="0 0 24 24">
<path fill-rule="evenodd" clip-rule="evenodd" d="M19 11.9994C19 8.42024 18.146 5.12973 16.7143 2.63942L14.9171 3.53529C16.1877 5.69424 16.994 8.67482 16.994 11.9994C16.994 15.324 16.1877 18.3046 14.9171 20.4635L16.7143 21.3594C18.146 18.8691 19 15.5786 19 11.9994ZM14.988 11.9994C14.988 9.16846 14.253 6.54955 13.011 4.48546L11.2114 5.38252C12.3071 7.13755 12.982 9.44731 12.982 11.9994C12.982 14.5515 12.3071 16.8613 11.2114 18.6163L13.011 19.5134C14.253 17.4493 14.988 14.8304 14.988 11.9994ZM9.36873 6.30103C10.3833 7.92067 10.976 9.88645 10.976 11.9994C10.976 14.1124 10.3833 16.0782 9.36873 17.6978L7.56526 16.7988C8.44596 15.465 8.97006 13.8054 8.97006 11.9994C8.97006 10.1935 8.44596 8.53383 7.56526 7.20002L9.36873 6.30103ZM6.96407 11.9994C6.96407 10.5692 6.54372 9.23194 5.8086 8.07567L4 8.97722C4.60973 9.86792 4.95808 10.9022 4.95808 11.9994C4.95808 13.0967 4.60973 14.1309 4 15.0216L5.8086 15.9232C6.54372 14.7669 6.96407 13.4297 6.96407 11.9994Z"/>
</symbol><symbol id="icon-upi" viewBox="0 0 22 17">
<path fill-rule="evenodd" clip-rule="evenodd" d="M1.81818 0H20.1818C21.186 0 22 0.89543 22 2V14C22 15.1046 21.186 16 20.1818 16H10V14H20V7H2V9H0V2C0 0.89543 0.814028 0 1.81818 0ZM20 2V5H2V2H20ZM0 14H4.58579L3.29289 15.2929L4.70711 16.7071L8.41421 13L4.70711 9.29289L3.29289 10.7071L4.58579 12H0V14Z"/>
</symbol><symbol id="icon-wallet" viewBox="0 0 20 20">
<path fill-rule="evenodd" clip-rule="evenodd" d="M13.4506 0.402678C14.5126 0.099229 15.6196 0.714213 15.923 1.77628C15.9741 1.95497 16 2.13989 16 2.32573V4H18C19.1046 4 20 4.89543 20 6V18C20 19.1046 19.1046 20 18 20H2C0.89543 20 0 19.1046 0 18H0.0267034C0.00895177 17.8925 0 17.7835 0 17.6743V5.7543C0 4.86134 0.591955 4.07656 1.45056 3.83125L13.4506 0.402678ZM8.14005 18H18V10H16V14.2457C16 15.1387 15.408 15.9234 14.5494 16.1687L8.14005 18ZM18 6V8H16V6H18ZM2 5.75427V17.6742L14 14.2457V2.3257L2 5.75427ZM12 8C12 8.55228 11.5523 9 11 9C10.4477 9 10 8.55228 10 8C10 7.44771 10.4477 7 11 7C11.5523 7 12 7.44771 12 8Z"/>
</symbol></svg>